# Created by FreeCAD <https://www.freecad.org>
v -0.000000 1476.000000 0.000000 173 181 189
v 984.962524 7062.000000 0.000000 173 181 189
v 6775.779785 1476.000000 0.000000 173 181 189
v 5790.817383 7062.000000 0.000000 173 181 189
v 5790.817383 7062.000000 3450.000000 173 181 189
v 984.962524 7062.000000 3450.000000 173 181 189
v 6775.779785 1476.000000 4435.000000 173 181 189
v -0.000000 1476.000000 4435.000000 173 181 189
vn 0.984808 0.173648 0.000000
vn 0.984808 0.173648 -0.000000
vn -0.984808 0.173648 0.000000
vn -0.984808 0.173648 0.000000
f 3//1 4//1 5//1
f 3//2 5//2 7//2
f 6//3 1//3 8//3
f 2//4 1//4 6//4
