# Created by FreeCAD <https://www.freecad.org>
v 5790.823242 7062.000000 3450.000000 173 181 189
v 984.962524 7062.000000 3450.000000 173 181 189
v 6775.785645 1476.000000 4435.000000 173 181 189
v 6073.909668 473.617249 4109.021973 173 181 189
v 3387.892822 -0.000000 3955.000000 173 181 189
v 701.875977 473.617249 4109.021973 173 181 189
v -0.000000 1476.000000 4435.000000 173 181 189
vn -0.000000 0.173655 0.984807
vn -0.000000 0.173655 0.984807
vn -0.000000 -0.309261 0.950977
vn 0.000000 -0.309261 0.950977
vn 0.000000 -0.309261 0.950977
f 7//1 3//1 1//1
f 2//2 7//2 1//2
f 5//3 4//3 3//3
f 7//4 6//4 5//4
f 7//5 5//5 3//5
