# Created by FreeCAD <https://www.freecad.org>
v 4857.248047 7601.000000 0.000000 173 181 189
v 1918.537842 7601.000000 0.000000 173 181 189
v -0.000000 1476.000000 0.000000 173 181 189
v 3387.892822 -0.000000 0.000000 173 181 189
v 701.875977 473.617249 0.000000 173 181 189
v 984.962524 7062.000000 0.000000 173 181 189
v 6775.785645 1476.000000 0.000000 173 181 189
v 6073.909668 473.617249 0.000000 173 181 189
v 5790.823242 7062.000000 0.000000 173 181 189
vn 0.000000 0.000000 -1.000000
vn 0.000000 0.000000 -1.000000
vn 0.000000 0.000000 -1.000000
vn 0.000000 -0.000000 -1.000000
vn -0.000000 -0.000000 -1.000000
vn 0.000000 0.000000 -1.000000
vn 0.000000 0.000000 -1.000000
f 3//1 4//1 5//1
f 3//2 6//2 4//2
f 4//3 7//3 8//3
f 2//4 9//4 6//4
f 1//5 9//5 2//5
f 6//6 9//6 4//6
f 4//7 9//7 7//7
