# Created by FreeCAD <https://www.freecad.org>
v 1989.890015 4091.000000 25.000000 173 181 189
v 1833.890015 3304.000000 25.000000 173 181 189
v 1989.890015 4091.000000 975.000000 173 181 189
v 1833.890015 3304.000000 975.000000 173 181 189
v 2483.889893 3189.000000 25.000000 173 181 189
v 2483.889893 3189.000000 975.000000 173 181 189
v 4291.890137 3189.000000 25.000000 173 181 189
v 4291.890137 3189.000000 975.000000 173 181 189
v 4941.890137 3304.000000 25.000000 173 181 189
v 4941.890137 3304.000000 975.000000 173 181 189
v 4785.890137 4091.000000 25.000000 173 181 189
v 4785.890137 4091.000000 975.000000 173 181 189
v 4218.390137 3990.596191 975.000000 173 181 189
v 4218.390137 3990.596191 25.000000 173 181 189
v 2557.389893 3990.596191 25.000000 173 181 189
v 2557.389893 3990.596191 975.000000 173 181 189
vn -0.980915 0.194438 0.000000
vn -0.980915 0.194438 0.000000
vn -0.174217 -0.984707 0.000000
vn -0.174217 -0.984707 -0.000000
vn 0.000000 -1.000000 0.000000
vn 0.000000 -1.000000 0.000000
vn 0.174217 -0.984707 0.000000
vn 0.174217 -0.984707 0.000000
vn 0.980915 0.194438 -0.000000
vn 0.980915 0.194438 0.000000
vn -0.174217 0.984707 0.000000
vn -0.174217 0.984707 0.000000
vn 0.000000 1.000000 -0.000000
vn 0.000000 1.000000 0.000000
vn 0.174217 0.984707 0.000000
vn 0.174217 0.984707 -0.000000
vn 0.000000 -0.000000 -1.000000
vn 0.000000 0.000000 -1.000000
vn 0.000000 0.000000 -1.000000
vn 0.000000 -0.000000 -1.000000
vn 0.000000 0.000000 -1.000000
vn 0.000000 0.000000 -1.000000
vn 0.000000 0.000000 1.000000
vn 0.000000 0.000000 1.000000
vn 0.000000 0.000000 1.000000
vn 0.000000 0.000000 1.000000
vn 0.000000 0.000000 1.000000
vn 0.000000 0.000000 1.000000
f 1//1 2//1 3//1
f 3//2 2//2 4//2
f 2//3 5//3 4//3
f 4//4 5//4 6//4
f 5//5 7//5 6//5
f 6//6 7//6 8//6
f 7//7 9//7 8//7
f 8//8 9//8 10//8
f 9//9 11//9 10//9
f 10//10 11//10 12//10
f 12//11 11//11 13//11
f 11//12 14//12 13//12
f 14//13 15//13 13//13
f 13//14 15//14 16//14
f 16//15 15//15 3//15
f 15//16 1//16 3//16
f 1//17 15//17 2//17
f 2//18 15//18 5//18
f 5//19 14//19 7//19
f 15//20 14//20 5//20
f 14//21 9//21 7//21
f 14//22 11//22 9//22
f 16//23 3//23 4//23
f 16//24 4//24 6//24
f 13//25 6//25 8//25
f 13//26 16//26 6//26
f 10//27 13//27 8//27
f 12//28 13//28 10//28
