# Created by FreeCAD <https://www.freecad.org>
v -0.000000 1476.000000 0.000000 173 181 189
v 3387.889893 0.000000 0.000000 173 181 189
v 701.876343 473.616669 0.000000 173 181 189
v 6775.779785 1476.000000 0.000000 173 181 189
v 6073.903809 473.616669 0.000000 173 181 189
v 6775.779785 1476.000000 4435.000000 173 181 189
v 6073.903809 473.616669 4109.021484 173 181 189
v 3387.889893 -0.000000 3955.000000 173 181 189
v 701.876343 473.616669 4109.021484 173 181 189
v -0.000000 1476.000000 4435.000000 173 181 189
vn 0.819152 -0.573576 0.000000
vn 0.819152 -0.573576 0.000000
vn 0.173648 -0.984808 0.000000
vn 0.173648 -0.984808 -0.000000
vn -0.173648 -0.984808 0.000000
vn -0.173648 -0.984808 0.000000
vn -0.819152 -0.573576 -0.000000
vn -0.819152 -0.573576 -0.000000
f 4//1 6//1 7//1
f 5//2 4//2 7//2
f 5//3 7//3 8//3
f 2//4 5//4 8//4
f 3//5 2//5 8//5
f 3//6 8//6 9//6
f 1//7 3//7 9//7
f 1//8 9//8 10//8
