# Created by FreeCAD <https://www.freecad.org>
v 4857.242188 7601.000000 0.000000 173 181 189
v 1918.537842 7601.000000 0.000000 173 181 189
v 1918.537842 7601.000000 2000.000000 173 181 189
v 4857.242188 7601.000000 2000.000000 173 181 189
v 984.962524 7062.000000 0.000000 173 181 189
v 5790.817383 7062.000000 0.000000 173 181 189
v 5790.817383 7062.000000 3450.000000 173 181 189
v 984.962524 7062.000000 3450.000000 173 181 189
vn 0.000000 1.000000 0.000000
vn 0.000000 1.000000 -0.000000
vn 0.500000 0.866025 0.000000
vn 0.500000 0.866025 -0.000000
vn 0.000000 0.937335 0.348430
vn -0.000000 0.937335 0.348430
vn -0.500000 0.866025 0.000000
vn -0.500000 0.866025 0.000000
f 1//1 2//1 3//1
f 1//2 3//2 4//2
f 6//3 1//3 4//3
f 6//4 4//4 7//4
f 3//5 8//5 7//5
f 3//6 7//6 4//6
f 5//7 8//7 3//7
f 2//8 5//8 3//8
