# Created by FreeCAD <https://www.freecad.org>
v 1927.890015 670.000000 328.000000 173 181 189
v 1927.890015 1650.000000 508.000000 173 181 189
v 1927.890015 670.000000 508.000000 173 181 189
v 4847.890137 670.000000 328.000000 173 181 189
v 4847.890137 670.000000 508.000000 173 181 189
v 4847.890137 1650.000000 328.000000 173 181 189
v 4847.890137 1650.000000 508.000000 173 181 189
v 1777.890015 1650.000000 328.000000 173 181 189
v 1777.890015 670.000000 328.000000 173 181 189
v 1777.890015 1650.000000 1008.000000 173 181 189
v 1777.890015 670.000000 1008.000000 173 181 189
v 1927.890015 670.000000 1008.000000 173 181 189
v 1927.890015 1650.000000 328.000000 173 181 189
v 1927.890015 1650.000000 1008.000000 173 181 189
v 4847.890137 1650.000000 1008.000000 173 181 189
v 4847.890137 670.000000 1008.000000 173 181 189
v 4997.890137 670.000000 328.000000 173 181 189
v 4997.890137 670.000000 1008.000000 173 181 189
v 4997.890137 1650.000000 328.000000 173 181 189
v 4997.890137 1650.000000 1008.000000 173 181 189
v 1927.890015 1100.000000 748.000000 173 181 189
v 1927.890015 1650.000000 748.000000 173 181 189
v 1927.890015 1100.000000 508.000000 173 181 189
v 2657.889893 1100.000000 748.000000 173 181 189
v 2657.889893 1100.000000 508.000000 173 181 189
v 2657.889893 1650.000000 748.000000 173 181 189
v 2657.889893 1650.000000 508.000000 173 181 189
v 3387.889893 1100.000000 748.000000 173 181 189
v 3387.889893 1100.000000 508.000000 173 181 189
v 3387.889893 1650.000000 748.000000 173 181 189
v 3387.889893 1650.000000 508.000000 173 181 189
v 4117.890137 1100.000000 748.000000 173 181 189
v 4117.890137 1100.000000 508.000000 173 181 189
v 4117.890137 1650.000000 748.000000 173 181 189
v 4117.890137 1650.000000 508.000000 173 181 189
v 4847.890137 1100.000000 748.000000 173 181 189
v 4847.890137 1100.000000 508.000000 173 181 189
v 4847.890137 1650.000000 748.000000 173 181 189
vn -1.000000 0.000000 0.000000
vn -1.000000 -0.000000 0.000000
vn 0.000000 -1.000000 0.000000
vn 0.000000 -1.000000 0.000000
vn 1.000000 0.000000 0.000000
vn 1.000000 -0.000000 0.000000
vn 0.000000 1.000000 -0.000000
vn 0.000000 1.000000 0.000000
vn 0.000000 0.000000 -1.000000
vn 0.000000 0.000000 -1.000000
vn 0.000000 0.000000 1.000000
vn 0.000000 0.000000 1.000000
vn -1.000000 0.000000 0.000000
vn -1.000000 -0.000000 0.000000
vn 0.000000 -1.000000 0.000000
vn 0.000000 -1.000000 0.000000
vn 1.000000 0.000000 0.000000
vn 1.000000 -0.000000 0.000000
vn 0.000000 1.000000 -0.000000
vn 0.000000 1.000000 0.000000
vn 0.000000 0.000000 -1.000000
vn 0.000000 0.000000 -1.000000
vn 0.000000 0.000000 1.000000
vn 0.000000 0.000000 1.000000
vn -1.000000 0.000000 0.000000
vn -1.000000 -0.000000 0.000000
vn 0.000000 -1.000000 0.000000
vn 0.000000 -1.000000 0.000000
vn 1.000000 0.000000 0.000000
vn 1.000000 -0.000000 0.000000
vn 0.000000 1.000000 -0.000000
vn 0.000000 1.000000 0.000000
vn 0.000000 0.000000 -1.000000
vn 0.000000 0.000000 -1.000000
vn 0.000000 0.000000 1.000000
vn 0.000000 0.000000 1.000000
vn -1.000000 0.000000 0.000000
vn -1.000000 0.000000 0.000000
vn 0.000000 -1.000000 0.000000
vn 0.000000 -1.000000 0.000000
vn 1.000000 0.000000 0.000000
vn 1.000000 0.000000 0.000000
vn 0.000000 1.000000 -0.000000
vn 0.000000 1.000000 0.000000
vn 0.000000 0.000000 -1.000000
vn 0.000000 0.000000 -1.000000
vn 0.000000 0.000000 1.000000
vn 0.000000 0.000000 1.000000
vn -1.000000 0.000000 0.000000
vn -1.000000 0.000000 0.000000
vn 0.000000 -1.000000 0.000000
vn 0.000000 -1.000000 0.000000
vn 1.000000 0.000000 0.000000
vn 1.000000 0.000000 0.000000
vn 0.000000 1.000000 -0.000000
vn 0.000000 1.000000 0.000000
vn 0.000000 0.000000 -1.000000
vn 0.000000 0.000000 -1.000000
vn 0.000000 0.000000 1.000000
vn 0.000000 0.000000 1.000000
vn -1.000000 0.000000 0.000000
vn -1.000000 0.000000 0.000000
vn 0.000000 -1.000000 0.000000
vn 0.000000 -1.000000 0.000000
vn 1.000000 0.000000 0.000000
vn 1.000000 0.000000 0.000000
vn 0.000000 1.000000 -0.000000
vn 0.000000 1.000000 0.000000
vn 0.000000 0.000000 -1.000000
vn 0.000000 0.000000 -1.000000
vn 0.000000 0.000000 1.000000
vn 0.000000 0.000000 1.000000
vn -1.000000 0.000000 0.000000
vn -1.000000 0.000000 0.000000
vn 0.000000 -1.000000 0.000000
vn 0.000000 -1.000000 0.000000
vn 1.000000 0.000000 0.000000
vn 1.000000 0.000000 0.000000
vn 0.000000 1.000000 -0.000000
vn 0.000000 1.000000 0.000000
vn 0.000000 0.000000 -1.000000
vn 0.000000 0.000000 -1.000000
vn 0.000000 0.000000 1.000000
vn 0.000000 0.000000 1.000000
f 13//1 1//1 2//1
f 2//2 1//2 3//2
f 1//3 4//3 3//3
f 3//4 4//4 5//4
f 4//5 6//5 5//5
f 5//6 6//6 7//6
f 6//7 13//7 7//7
f 7//8 13//8 2//8
f 13//9 6//9 1//9
f 1//10 6//10 4//10
f 7//11 2//11 3//11
f 7//12 3//12 5//12
f 8//13 9//13 10//13
f 10//14 9//14 11//14
f 9//15 1//15 11//15
f 11//16 1//16 12//16
f 1//17 13//17 12//17
f 12//18 13//18 14//18
f 13//19 8//19 14//19
f 14//20 8//20 10//20
f 8//21 13//21 9//21
f 9//22 13//22 1//22
f 14//23 10//23 11//23
f 14//24 11//24 12//24
f 6//25 4//25 15//25
f 15//26 4//26 16//26
f 4//27 17//27 16//27
f 16//28 17//28 18//28
f 17//29 19//29 18//29
f 18//30 19//30 20//30
f 19//31 6//31 20//31
f 20//32 6//32 15//32
f 6//33 19//33 4//33
f 4//34 19//34 17//34
f 20//35 15//35 16//35
f 20//36 16//36 18//36
f 2//37 21//37 22//37
f 2//38 23//38 21//38
f 23//39 24//39 21//39
f 23//40 25//40 24//40
f 25//41 26//41 24//41
f 25//42 27//42 26//42
f 27//43 22//43 26//43
f 27//44 2//44 22//44
f 2//45 25//45 23//45
f 2//46 27//46 25//46
f 24//47 22//47 21//47
f 26//48 22//48 24//48
f 27//49 24//49 26//49
f 27//50 25//50 24//50
f 25//51 28//51 24//51
f 25//52 29//52 28//52
f 29//53 30//53 28//53
f 29//54 31//54 30//54
f 31//55 26//55 30//55
f 31//56 27//56 26//56
f 27//57 29//57 25//57
f 27//58 31//58 29//58
f 28//59 26//59 24//59
f 30//60 26//60 28//60
f 31//61 28//61 30//61
f 31//62 29//62 28//62
f 29//63 32//63 28//63
f 29//64 33//64 32//64
f 33//65 34//65 32//65
f 33//66 35//66 34//66
f 35//67 30//67 34//67
f 35//68 31//68 30//68
f 31//69 33//69 29//69
f 31//70 35//70 33//70
f 32//71 30//71 28//71
f 34//72 30//72 32//72
f 35//73 32//73 34//73
f 35//74 33//74 32//74
f 33//75 36//75 32//75
f 33//76 37//76 36//76
f 37//77 38//77 36//77
f 37//78 7//78 38//78
f 7//79 34//79 38//79
f 7//80 35//80 34//80
f 35//81 37//81 33//81
f 35//82 7//82 37//82
f 36//83 34//83 32//83
f 38//84 34//84 36//84
