# Created by FreeCAD <https://www.freecad.org>
v 7014.450684 2237.524902 0.000000 173 181 189
v 5235.945801 7123.926758 0.000000 173 181 189
v 5235.945801 7123.926758 3500.000000 173 181 189
v 7014.450684 2237.524902 3500.000000 173 181 189
v 6444.097656 1014.399231 0.000000 173 181 189
v 6444.097656 1014.399231 3500.000000 173 181 189
v 3791.739990 49.020000 3500.000000 173 181 189
v 3791.739990 49.020000 0.000000 173 181 189
v 969.159973 49.020000 0.000000 173 181 189
v 969.159973 49.020000 3500.000000 173 181 189
v 14.869902 1003.310120 3500.000000 173 181 189
v 14.869902 1003.310120 0.000000 173 181 189
v 14.869902 6203.310059 3500.000000 173 181 189
v 14.869902 6203.310059 0.000000 173 181 189
v 1403.930176 7368.870117 0.000000 173 181 189
v 1403.930176 7368.870117 3500.000000 173 181 189
v 3532.010986 7744.107910 3500.000000 173 181 189
v 3532.010986 7744.107910 0.000000 173 181 189
vn 0.939693 0.342020 0.000000
vn 0.939693 0.342020 -0.000000
vn 0.906308 -0.422618 0.000000
vn 0.906308 -0.422618 0.000000
vn 0.342020 -0.939693 0.000000
vn 0.342020 -0.939693 0.000000
vn 0.000000 -1.000000 0.000000
vn 0.000000 -1.000000 0.000000
vn -0.707107 -0.707107 0.000000
vn -0.707107 -0.707107 0.000000
vn -1.000000 -0.000000 0.000000
vn -1.000000 0.000000 0.000000
vn -0.642788 0.766044 -0.000000
vn -0.642788 0.766044 0.000000
vn -0.173648 0.984808 0.000000
vn -0.173648 0.984808 0.000000
vn 0.342020 0.939693 -0.000000
vn 0.342020 0.939693 -0.000000
f 1//1 2//1 3//1
f 1//2 3//2 4//2
f 5//3 1//3 4//3
f 5//4 4//4 6//4
f 5//5 6//5 7//5
f 8//6 5//6 7//6
f 9//7 8//7 7//7
f 9//8 7//8 10//8
f 9//9 10//9 11//9
f 12//10 9//10 11//10
f 13//11 12//11 11//11
f 14//12 12//12 13//12
f 15//13 14//13 13//13
f 15//14 13//14 16//14
f 15//15 16//15 17//15
f 18//16 15//16 17//16
f 2//17 18//17 17//17
f 2//18 17//18 3//18
